<svg version="1.1" viewBox="0.0 0.0 960.0 540.0" fill="none" stroke="none" stroke-linecap="square" stroke-miterlimit="10" xmlns:xlink="http://www.w3.org/1999/xlink" xmlns="http://www.w3.org/2000/svg"><clipPath id="g12c5f123631_0_86.0"><path d="m0 0l960.0 0l0 540.0l-960.0 0l0 -540.0z" clip-rule="nonzero"/></clipPath><g clip-path="url(#g12c5f123631_0_86.0)"><path fill="#000000" d="m0 0l960.0 0l0 540.0l-960.0 0z" fill-rule="evenodd"/><path fill="#8bffec" fill-opacity="0.2346" d="m327.21454 72.31015l0 0c0 -26.237392 21.269592 -47.507 47.50699 -47.507l91.22223 0l0 0c12.59964 0 24.683228 5.005186 33.59253 13.914478c8.909271 8.90929 13.914459 20.992878 13.914459 33.59252l0 104.135605c0 26.237396 -21.269592 47.507004 -47.50699 47.507004l-91.22223 0l0 0c-26.237396 0 -47.50699 -21.269608 -47.50699 -47.507004z" fill-rule="evenodd"/><path stroke="#cccccc" stroke-width="1.0" stroke-linejoin="round" stroke-linecap="butt" d="m327.21454 72.31015l0 0c0 -26.237392 21.269592 -47.507 47.50699 -47.507l91.22223 0l0 0c12.59964 0 24.683228 5.005186 33.59253 13.914478c8.909271 8.90929 13.914459 20.992878 13.914459 33.59252l0 104.135605c0 26.237396 -21.269592 47.507004 -47.50699 47.507004l-91.22223 0l0 0c-26.237396 0 -47.50699 -21.269608 -47.50699 -47.507004z" fill-rule="evenodd"/><path fill="#ffffff" d="m422.97485 145.69795l0 -10.046875l-18.203125 0l0 -4.734375l19.15625 -27.203117l4.203125 0l0 27.203117l5.671875 0l0 4.734375l-5.671875 0l0 10.046875l-5.15625 0zm0 -14.78125l0 -18.921867l-13.140625 18.921867l13.140625 0z" fill-rule="nonzero"/><path fill="#8bffec" fill-opacity="0.2346" d="m518.0673 143.48608l0 0c0 -27.145004 22.005371 -49.150375 49.15039 -49.150375l82.73859 0l0 0c13.035522 0 25.53711 5.1783295 34.754578 14.395813c9.217468 9.2174835 14.395813 21.71907 14.395813 34.754562l0 127.11658c0 27.144989 -22.005371 49.15036 -49.15039 49.15036l-82.73859 0l0 0c-27.14502 0 -49.15039 -22.005371 -49.15039 -49.15036z" fill-rule="evenodd"/><path stroke="#cccccc" stroke-width="1.0" stroke-linejoin="round" stroke-linecap="butt" d="m518.0673 143.48608l0 0c0 -27.145004 22.005371 -49.150375 49.15039 -49.150375l82.73859 0l0 0c13.035522 0 25.53711 5.1783295 34.754578 14.395813c9.217468 9.2174835 14.395813 21.71907 14.395813 34.754562l0 127.11658c0 27.144989 -22.005371 49.15036 -49.15039 49.15036l-82.73859 0l0 0c-27.14502 0 -49.15039 -22.005371 -49.15039 -49.15036z" fill-rule="evenodd"/><path fill="#ffffff" d="m594.7449 217.28625l5.15625 -0.6875q0.875 4.375 3.015625 6.3125q2.140625 1.9375 5.203125 1.9375q3.625 0 6.125 -2.515625q2.515625 -2.53125 2.515625 -6.25q0 -3.5625 -2.328125 -5.859375q-2.3125 -2.3125 -5.890625 -2.3125q-1.453125 0 -3.640625 0.578125l0.578125 -4.53125q0.515625 0.0625 0.828125 0.0625q3.296875 0 5.921875 -1.71875q2.640625 -1.71875 2.640625 -5.296875q0 -2.84375 -1.921875 -4.703125q-1.90625 -1.859375 -4.953125 -1.859375q-3.0 0 -5.015625 1.890625q-2.0 1.890625 -2.5625 5.671875l-5.15625 -0.921875q0.9375 -5.171875 4.28125 -8.015625q3.359375 -2.859375 8.34375 -2.859375q3.4375 0 6.328125 1.484375q2.890625 1.46875 4.421875 4.015625q1.53125 2.546875 1.53125 5.40625q0 2.71875 -1.46875 4.953125q-1.453125 2.234375 -4.3125 3.5625q3.71875 0.859375 5.78125 3.5625q2.0625 2.703125 2.0625 6.765625q0 5.5 -4.015625 9.328125q-4.0 3.828125 -10.125 3.828125q-5.53125 0 -9.1875 -3.296875q-3.640625 -3.296875 -4.15625 -8.53125z" fill-rule="nonzero"/><path fill="#8bffec" fill-opacity="0.2346" d="m260.8937 294.3069l0 0c0 -26.237396 21.269592 -47.50702 47.50699 -47.50702l91.22223 0l0 0c12.59964 0 24.683228 5.005188 33.59253 13.91449c8.909271 8.909271 13.914459 20.99289 13.914459 33.59253l0 104.13559c0 26.237396 -21.269592 47.50702 -47.50699 47.50702l-91.22223 0l0 0c-26.237396 0 -47.50699 -21.269623 -47.50699 -47.50702z" fill-rule="evenodd"/><path stroke="#cccccc" stroke-width="1.0" stroke-linejoin="round" stroke-linecap="butt" d="m260.8937 294.3069l0 0c0 -26.237396 21.269592 -47.50702 47.50699 -47.50702l91.22223 0l0 0c12.59964 0 24.683228 5.005188 33.59253 13.91449c8.909271 8.909271 13.914459 20.99289 13.914459 33.59253l0 104.13559c0 26.237396 -21.269592 47.50702 -47.50699 47.50702l-91.22223 0l0 0c-26.237396 0 -47.50699 -21.269623 -47.50699 -47.50702z" fill-rule="evenodd"/><path fill="#ffffff" d="m367.23215 362.74155l0 4.953125l-27.75 0q-0.0625 -1.859375 0.59375 -3.578125q1.0625 -2.84375 3.390625 -5.59375q2.34375 -2.75 6.75 -6.34375q6.84375 -5.625 9.25 -8.90625q2.40625 -3.28125 2.40625 -6.1875q0 -3.078125 -2.1875 -5.171875q-2.1875 -2.109375 -5.71875 -2.109375q-3.71875 0 -5.953125 2.234375q-2.234375 2.234375 -2.265625 6.1875l-5.296875 -0.546875q0.546875 -5.921875 4.09375 -9.03125q3.546875 -3.109375 9.53125 -3.109375q6.046875 0 9.5625 3.359375q3.53125 3.34375 3.53125 8.296875q0 2.515625 -1.03125 4.953125q-1.03125 2.4375 -3.421875 5.125q-2.390625 2.6875 -7.953125 7.390625q-4.625 3.890625 -5.953125 5.28125q-1.3125 1.390625 -2.171875 2.796875l20.59375 0z" fill-rule="nonzero"/><path fill="#8bffec" fill-opacity="0.2346" d="m452.30423 375.2007l0 0c0 -26.47702 21.463867 -47.940857 47.940857 -47.940857l123.07895 0l0 0c12.714661 0 24.90863 5.0509033 33.899292 14.041534c8.990662 8.990662 14.041565 21.1846 14.041565 33.899323l0 92.0553c0 26.47699 -21.463867 47.940826 -47.940857 47.940826l-123.07895 0c-26.47699 0 -47.940857 -21.463837 -47.940857 -47.940826z" fill-rule="evenodd"/><path stroke="#cccccc" stroke-width="1.0" stroke-linejoin="round" stroke-linecap="butt" d="m452.30423 375.2007l0 0c0 -26.47702 21.463867 -47.940857 47.940857 -47.940857l123.07895 0l0 0c12.714661 0 24.90863 5.0509033 33.899292 14.041534c8.990662 8.990662 14.041565 21.1846 14.041565 33.899323l0 92.0553c0 26.47699 -21.463867 47.940826 -47.940857 47.940826l-123.07895 0c-26.47699 0 -47.940857 -21.463837 -47.940857 -47.940826z" fill-rule="evenodd"/><path fill="#ffffff" d="m567.333 442.54837l-5.15625 0l0 -32.84375q-1.875 1.765625 -4.890625 3.546875q-3.015625 1.765625 -5.421875 2.65625l0 -4.984375q4.328125 -2.03125 7.5625 -4.921875q3.234375 -2.890625 4.578125 -5.609375l3.328125 0l0 42.15625z" fill-rule="nonzero"/></g></svg>